<svg id="Capa_1" enable-background="new 0 0 509.938 509.938" height="512" viewBox="0 0 509.938 509.938" width="512" xmlns="http://www.w3.org/2000/svg"><g><g><path d="m433.657 272.986h-9.78c0-12.944-3.231-25.129-8.912-35.812l-14.773 14.773-13.927-13.927c-5.031 2.945-10.487 5.241-16.264 6.753v19.68h-33v-19.68c-5.776-1.512-11.232-3.809-16.264-6.753l-13.927 13.927-23.335-23.334 13.927-13.927c-2.945-5.031-5.241-10.487-6.753-16.264h-19.68v-33h19.68c1.512-5.776 3.809-11.232 6.753-16.264l-13.927-13.928 6.522-6.522c-10.495-5.427-22.398-8.51-35.028-8.51-42.191 0-76.394 34.203-76.394 76.394 0 .467.027.927.035 1.392-4.696-.902-9.539-1.392-14.499-1.392-42.191 0-76.394 34.203-76.394 76.394h-11.437c-37.986 0-68.78 30.794-68.78 68.78s30.794 68.78 68.78 68.78h357.377c37.986 0 68.78-30.794 68.78-68.78.001-37.986-30.793-68.78-68.78-68.78z" fill="#f96491"/><path d="m291.764 161.666c1.444-4.394 3.34-8.582 5.638-12.507l-13.927-13.928 6.522-6.522c-10.495-5.426-22.398-8.51-35.028-8.51-21.127 0-40.249 8.577-54.079 22.438 11.644-4.49 23.057-7.438 33.079-7.438 23.098-.001 43.786 10.265 57.795 26.467z" fill="#f93a79"/><path d="m433.657 272.986h-9.78c0-12.944-3.231-25.129-8.912-35.812l-14.773 14.773-13.927-13.927c-.448.262-.903.513-1.358.765 11.207 13.293 17.971 30.454 17.971 49.202h9.78c37.986 0 68.78 30.794 68.78 68.78 0 18.426-7.259 35.146-19.057 47.493 23.638-10.884 40.057-34.764 40.057-62.493 0-37.987-30.794-68.781-68.781-68.781z" fill="#f93a79"/><path d="m436.031 198.422v-33h-19.68c-1.512-5.776-3.809-11.232-6.753-16.264l13.927-13.928-23.335-23.334-13.927 13.928c-5.031-2.945-10.487-5.241-16.264-6.753v-19.68h-33v19.68c-5.776 1.512-11.232 3.809-16.264 6.753l-13.927-13.928-23.335 23.334 13.927 13.928c-2.945 5.031-5.241 10.487-6.753 16.264h-19.68v33h19.68c1.512 5.776 3.808 11.232 6.753 16.264l-13.927 13.927 23.335 23.334 13.927-13.927c5.031 2.945 10.487 5.241 16.264 6.753v19.68h33v-19.68c5.776-1.512 11.232-3.809 16.264-6.753l13.927 13.927 23.335-23.334-13.927-13.927c2.945-5.031 5.241-10.487 6.753-16.264zm-82.531 7.621c-13.322 0-24.121-10.799-24.121-24.121s10.799-24.121 24.121-24.121 24.121 10.799 24.121 24.121-10.799 24.121-24.121 24.121z" fill="#a9baca"/></g><g><path d="m15 341.767c0-33.79 27.49-61.28 61.28-61.28h18.937v-7.5c0-37.988 30.906-68.894 68.895-68.894 4.342 0 8.743.423 13.083 1.257l1.275.245c5.415 1.175 31.811 8.362 44.587 38.707l13.824-5.821c-13.323-31.641-38.705-42.75-50.653-46.343.834-13.173 5.354-25.659 13.221-36.345l-12.08-8.893c-9.234 12.544-14.698 27.117-15.993 42.512-2.426-.212-4.852-.319-7.264-.319-43.732 0-79.757 33.634-83.562 76.394h-4.27c-42.062 0-76.28 34.219-76.28 76.28s34.219 76.28 76.28 76.28h238.688v-15h-238.688c-33.79 0-61.28-27.49-61.28-61.28z"/><path d="m433.657 265.486h-2.617c-.833-9.258-3.217-18.334-6.997-26.785l10.089-10.089-15.308-15.308c1.16-2.407 2.185-4.872 3.067-7.383h21.64v-48h-21.64c-.883-2.511-1.907-4.976-3.067-7.383l15.308-15.309-33.94-33.941-15.309 15.308c-2.407-1.161-4.872-2.185-7.383-3.067v-21.64h-48v21.64c-2.511.883-4.976 1.907-7.383 3.067l-15.309-15.308-18.366 18.366c-10.499-4.56-21.96-6.958-33.474-6.958-20.892 0-40.91 7.728-56.369 21.758l10.082 11.107c12.692-11.521 29.131-17.866 46.287-17.866 7.564 0 14.891 1.19 21.891 3.541l-3.991 3.991 15.308 15.309c-1.16 2.407-2.185 4.872-3.067 7.383h-21.64v48h21.64c.883 2.511 1.907 4.976 3.067 7.383l-15.308 15.308 33.94 33.941 15.309-15.308c2.407 1.161 4.872 2.185 7.383 3.067v21.64h48v-21.64c2.511-.883 4.976-1.907 7.383-3.067l15.309 15.308 12.328-12.328c2.538 7.279 3.858 14.998 3.858 22.761v7.5h17.28c33.79 0 61.28 27.49 61.28 61.28s-27.49 61.28-61.28 61.28h-103.689v15h103.688c42.062 0 76.28-34.219 76.28-76.28s-34.218-76.278-76.28-76.278zm-46.184-36.864-4.997 2.925c-4.528 2.65-9.364 4.659-14.375 5.971l-5.601 1.466v17.969h-18v-17.969l-5.601-1.466c-5.011-1.312-9.847-3.321-14.375-5.971l-4.997-2.925-12.719 12.719-12.728-12.728 12.718-12.718-2.925-4.997c-2.649-4.527-4.658-9.364-5.971-14.375l-1.466-5.6h-17.969v-18h17.969l1.466-5.6c1.312-5.012 3.321-9.848 5.971-14.375l2.925-4.997-12.718-12.719 12.728-12.728 12.719 12.719 4.997-2.925c4.528-2.65 9.364-4.659 14.375-5.971l5.601-1.466v-17.969h18v17.969l5.601 1.466c5.011 1.312 9.847 3.321 14.375 5.971l4.997 2.925 12.719-12.719 12.728 12.728-12.718 12.719 2.925 4.997c2.649 4.527 4.658 9.364 5.971 14.375l1.466 5.6h17.969v18h-17.969l-1.466 5.6c-1.312 5.012-3.321 9.848-5.971 14.375l-2.925 4.997 12.718 12.718-12.728 12.728z"/><path d="m121.429 371.334c-9.14 0-17.971-3.725-23.625-9.964l-9.633 8.73c8.077 8.912 20.51 14.233 33.258 14.233 15.156 0 28.354-9.908 30.7-23.047 2.697-15.105-9.268-25.255-21.362-29.717-10.636-3.923-20.49-8.209-22.825-9.236-2.892-2.079-4.3-5.43-3.779-9.054.641-4.464 4.038-8.036 9.088-9.558 13.568-4.091 25.76 5.778 25.882 5.879l8.342-9.971c-.708-.596-17.568-14.505-37.974-8.355-9.872 2.974-16.849 10.697-18.206 20.157-1.262 8.787 2.543 17.237 9.929 22.053l.432.281.47.21c.468.208 11.599 5.163 24.144 9.791 9.411 3.471 14.173 9.023 13.063 15.234-1.069 5.98-7.706 12.334-17.904 12.334z"/><path d="m393.44 371.334c-9.14 0-17.971-3.725-23.625-9.964l-9.633 8.73c8.077 8.912 20.51 14.233 33.258 14.233 15.156 0 28.354-9.908 30.7-23.047 2.697-15.105-9.268-25.255-21.362-29.717-10.636-3.923-20.49-8.209-22.825-9.236-2.892-2.079-4.3-5.43-3.779-9.054.641-4.464 4.038-8.036 9.088-9.558 13.569-4.091 25.76 5.778 25.882 5.879l8.342-9.971c-.708-.596-17.569-14.505-37.974-8.355-9.872 2.974-16.849 10.697-18.206 20.157-1.262 8.787 2.543 17.237 9.929 22.053l.432.281.47.21c.468.208 11.599 5.163 24.144 9.791 9.411 3.471 14.173 9.023 13.063 15.234-1.069 5.98-7.705 12.334-17.904 12.334z"/><path d="m244.386 378.408v-65.719h-15v3.387c-6.036-4.416-13.468-7.031-21.503-7.031-20.128 0-36.503 16.375-36.503 36.503s16.375 36.503 36.503 36.503c8.035 0 15.467-2.615 21.503-7.031v3.387h15zm-36.503-11.356c-11.856 0-21.503-9.646-21.503-21.503s9.646-21.503 21.503-21.503 21.503 9.646 21.503 21.503-9.647 21.503-21.503 21.503z"/><path d="m339.599 378.408v-65.719h-15v3.387c-6.036-4.416-13.468-7.031-21.503-7.031-20.128 0-36.503 16.375-36.503 36.503s16.375 36.503 36.503 36.503c8.035 0 15.467-2.615 21.503-7.031v3.387h15zm-36.503-11.356c-11.856 0-21.503-9.646-21.503-21.503s9.646-21.503 21.503-21.503 21.503 9.646 21.503 21.503-9.647 21.503-21.503 21.503z"/><path d="m353.5 150.301c-17.436 0-31.621 14.185-31.621 31.621s14.186 31.621 31.621 31.621 31.621-14.185 31.621-31.621-14.185-31.621-31.621-31.621zm0 48.242c-9.165 0-16.621-7.456-16.621-16.621s7.456-16.621 16.621-16.621 16.621 7.456 16.621 16.621-7.456 16.621-16.621 16.621z"/></g></g></svg>