<?xml version="1.0" encoding="utf-8"?>
<!-- Designed by Vexels.com - 2019 All Rights Reserved - https://vexels.com/terms-and-conditions/  -->
<svg version="1.1" id="Layer_1" xmlns="http://www.w3.org/2000/svg" xmlns:xlink="http://www.w3.org/1999/xlink" x="0px" y="0px"
	 viewBox="0 0 1200 1200" enable-background="new 0 0 1200 1200" xml:space="preserve">
<path fill="#15233D" d="M934.713,360.383c-1.929-26.717-7.485-52.039-16.266-75.812c-18.598-50.353-51.664-93.751-95.37-128.712
	c-13.672-10.936-28.042-21.54-43.311-30.181c12.17-6.085,45.2,4.346,45.2,0c-99.961-60.846-235.56-44.331-241.645-44.331
	c8.693-13.038,56.5-31.292,56.5-31.292s-62.584-2.608-137.338,27.815c-74.754,30.423-131.253,86.923-131.253,86.923
	c90.4-64.323,207.746-26.946,207.746-26.946s-2.608-26.077,24.874-25.208c27.481,0.869,49.879,33.9,52.674,55.631
	c2.795,21.731-17.572,40.854-17.572,40.854c34.77,27.815,8.693,47.807,0,46.938c-33.899-85.184-161.676-55.63-157.33-63.454
	c4.346-7.823,13.908-26.946,13.908-31.292c-5.215,6.085-26.946,30.423-33.03,36.508c-6.085,6.085-13.039,6.085-13.908,0.869
	c9.562-10.431,6.085-37.377,6.085-37.377s-19.992,32.161-25.208,38.246c-5.215,6.085-20.861,11.3-26.469,17.385
	c-5.608,6.085-28.292,29.554-36.115,28.684c-7.823-0.869-19.123,2.608-26.077,7.823c-6.954,5.215-1.738,33.031-7.234,33.031
	c-5.496,0-9.281,2.608-13.627,4.346s-6.085,12.169-11.3,13.908c-5.216,1.738-13.039-14.777-13.039-14.777s-2.608,13.908-6.085,7.823
	c-3.477-6.084-6.085-19.123-6.085-19.123c-6.084,6.084-7.823,39.984-11.3,40.871c-3.477,0.886-6.085-4.363-7.823,0
	c-1.739,4.363,10.431,28.668,13.908,33.883c3.477,5.215,14.776-0.869,16.515,5.215c1.031,3.609,10.93,9.358,17.726,13.44
	c-3.844-5.408-7.296-13.44-7.296-13.44l14.777,1.739c0,0,0.869-14.777,3.477-9.562c2.607,5.215,20.86,3.477,20.86,3.477
	s-9.561-18.254-13.907-26.946c-4.346-8.692,14.777,6.085,14.777,6.085s-6.954-9.562,0-13.451
	c6.954-3.889,27.816,19.535,31.292,10.843c3.477-8.692,11.3-14.777,22.6-7.823c11.3,6.954-5.216,46.069-5.216,46.069l-12.169-2.608
	c0,0,8.693,9.562,0.87,13.038c-1.246,0.554-2.417,0.535-3.52,0.185c1.114,2.731,1.648,5.428,0.912,7.638
	c-1.948,5.845-5.835,1.987-7.678-0.339c1.713,2.531,4.629,7.729,0.724,9.031c-5.215,1.738-13.908-2.608-13.908-2.608
	s2.124,2.873,5.215,6.911c8.442,11.027,24.105,30.743,23.47,24.381c-0.87-8.692,4.346-5.215,4.346-5.215
	c6.954,6.085,31.292,4.346,25.208,3.477c-6.085-0.869-7.823-7.823-7.823-7.823c28.685,0,57.369-10.431,57.369-10.431
	s6.085-2.608-6.084-3.477c-12.17-0.869-39.115-2.608-43.461-2.608c-4.346,0-6.085-13.038,3.476-14.777s36.508-20.861,36.508-20.861
	l-14.777,3.477c-17.385,3.477-26.946,8.692-32.161,5.215c-5.215-3.477,5.215-6.085,5.215-6.085l7.824-7.823l-5.216-3.477
	l18.253-15.646c0,0,7.824-5.215,8.693-11.3l9.561-5.215c27.816-6.085,42.592-28.684,42.592-28.684
	c-10.43,9.561-40.854,16.515-40.854,16.515c18.254-13.038,28.685-33.9,28.685-33.9c-7.823,13.038-50.415,36.508-56.5,36.508
	c-6.084,0-0.87-12.169,15.647-19.992c16.515-7.823,13.038-8.692,12.169-17.385c-0.869-8.692,0-13.038,0-13.038
	s35.638-15.646,92.138-23.469c56.501-7.823,68.67,35.638,73.885,59.107c5.216,23.469-22.6,45.2-59.107,72.146
	c-36.508,26.946-69.539,40.854-115.607,67.8c-46.069,26.946-53.892,58.238-59.976,83.446c-6.085,25.207,8.692,51.284,8.692,36.507
	c0-14.777,14.777-35.638,14.777-35.638s-2.608,6.954,5.215,42.592c7.823,35.638,41.723,60.846,41.723,60.846l66.061,52.154
	l5.215,9.562c0,0,0,0-30.423,6.954c-30.423,6.954-53.022,46.069-53.022,46.069s-23.469,53.892,6.085,77.361
	c20.2,16.041,59.038,22.416,82.871,12.338c15.461-6.537,26.592-20.232,36.338-33.898c34.793,15.9,65.112,42.956,81.279,77.626
	c16.167,34.67,17.01,77.008-1.239,110.63c-16.631-15.472-20.815-39.865-23.168-62.457c-2.353-22.592-4.359-46.733-18.352-64.626
	c-1.817-2.324-4.034-4.633-6.935-5.167c-2.291-0.422-4.616,0.341-6.82,1.093c-28.481,7.12-56.68,19.304-84.49,28.758
	c13.708,11.213,30.11,18.525,45.257,27.702c15.146,9.177,29.722,21.077,36.233,37.546c7.907,20.002,2.435,42.766-5.807,62.633
	c-18.173,43.806-49.639,81.86-88.754,108.679c-17.122,11.74-36.497,21.607-57.246,22.277c-20.75,0.669-42.923-9.893-50.704-29.14
	c-7.334-18.141-0.547-39.169,10.397-55.39c14.381-21.315,37.605-38.241,63.315-38.668c13.061-0.217,28.156,5.971,30.851,18.753
	c0.952,4.515,0.189,9.21-0.882,13.698c-3.661,15.347-10.957,29.814-21.122,41.881c18.499-11.177,35.451-30.779,31.621-52.05
	c-3.647-20.253-26.025-33.207-46.553-31.766c-20.528,1.441-38.718,14.059-52.902,28.968c-17.138,18.016-30.563,42.784-25.086,67.039
	c4.401,19.49,20.77,34.94,39.63,41.535c18.861,6.595,39.784,5.234,58.994-0.26c34.921-9.986,65.016-32.98,88.985-60.268
	c23.97-27.288,42.415-58.895,60.447-90.423c9.057,12.696,14.393,28.012,15.186,43.587c22.843-25.146,39.441-56.187,46.143-89.492
	c6.703-33.304,3.276-68.809-11.08-99.598c-18.824-40.372-55.217-70.629-95.568-89.497c-19.694-9.209-42.596-17.082-64.646-13.809
	c6.032,8.415,12.143,17.053,15.059,26.986c4.928,16.788-2.15,33.348-19.387,38.492c-25.782,7.695-53.865-15.172-50.411-42.012
	c3.535-27.473,32.15-46.596,55.507-56.638c15.716-6.756,42.059-19.396,58.207-9.8c0,0,92.138,54.761,92.138,54.761
	c-12.17-26.077-78.231-64.323-78.231-64.323s47.631-16.713,47.682-16.73c0.924-0.324,8.374,5.498,9.323,6.074
	c6.131,3.725,12.383,7.237,18.553,10.891c13.362,7.913,25.768,17.372,36.931,28.171c19.958,19.308,35.913,42.755,46.326,68.509
	c11.338,28.043,10.629,61.082,9.59,90.814c0-6.843,6.703-17.464,9.186-23.931c2.352-6.128,4.613-12.261,6.737-18.471
	c5.145-15.043,10.02-30.178,14.726-45.365c17.822-57.515,11.893-123.468-0.522-181.499c-4.321-20.198-12.354-39.429-21.059-58.081
	c-13.528-28.985-31.134-56.077-52.245-80.114c-5.658,27.824-11.369,55.826-21.948,82.175
	c-10.578,26.349-26.418,51.232-49.098,68.314c-30.396-18.792-60.877-37.645-88.778-59.973
	c-17.238-13.795-34.355-30.455-38.476-52.145c-4.195-22.08,6.568-45.05,23.073-60.305c16.505-15.255,38.012-23.914,59.568-30.277
	c-1.525,2.909-1.426,6.606,0.255,9.428c14.911-11.168,28.791-23.711,41.408-37.417c-0.403,7.427-0.806,14.855-1.209,22.282
	c15.576-15.395,28.782-33.183,39.012-52.548c6.126,11.386,9.303,24.342,9.139,37.27c3.969-24.115,7.937-48.23,11.906-72.344
	c10.612,29.851,15.976,61.56,15.771,93.241c9.533-25.585,19.146-51.335,33.195-74.746c11.35,20.178,20.672,41.496,27.778,63.529
	c-4.834-40.676-11.874-85.363-43.177-111.783c0.399,4.604-2.209,9.328-6.319,11.441c-12.737-23.289-23.634-47.584-32.557-72.585
	c-0.74-2.073-1.423-4.533-0.167-6.341c1.313-1.889,4.018-2.028,6.313-1.858c28.46,2.111,52.51,22.083,70.417,44.304
	c38.987,48.382,58.241,112.209,52.513,174.079c19.648-35.835,13.881-80.387,0.465-118.99
	c-20.721-59.621-58.595-113.171-107.906-152.571c22.109-4.985,45.052,3.89,64.427,15.648
	c70.184,42.591,122.132,121.668,117.362,205.696c-0.321,5.662-0.806,11.315-1.389,16.956c-3.877,37.526-12.19,74.591-24.711,110.179
	c-10.738,30.52-24.558,59.964-33.61,91.026c-10.515,36.078-9.88,68.579-2.491,104.995c0,0,0,0,8.693-65.192
	s59.107-157.33,79.969-204.27C937.32,424.841,936.715,388.107,934.713,360.383z M352.043,282.986
	c-6.573-0.773-2.32-1.933-2.32-1.933c-0.387-6.573,3.093-15.853,6.573-18.172c3.48-2.32,11.213-4.64,14.693-4.64
	s11.213,7.346,11.213,7.346S358.616,283.759,352.043,282.986z M729.351,599.524c4.346-10.547,39.116,102.452,29.554,131.137
	c0,0-62.584-85.184-81.708-81.707C677.198,648.953,725.005,610.071,729.351,599.524z M593.752,659.384l-37.377,19.992
	c-168.63-98.223-103.438-164.284-103.438-164.284C425.122,574.2,593.752,659.384,593.752,659.384z"/>
</svg>
